<svg width="43" height="44" viewBox="0 0 43 44" fill="none" xmlns="http://www.w3.org/2000/svg">
<path opacity="0.75" d="M41.5933 14.244L38.4033 14.4158C38.4033 14.4158 38.3333 14.4158 38.3033 14.4158C37.8633 12.1817 36.9533 10.2307 35.6733 8.64354C35.6933 8.61321 35.7133 8.58288 35.7333 8.54244L37.5733 5.3884C37.8733 4.86272 37.8233 4.27641 37.4433 3.98325L35.4033 2.41631C35.0233 2.12315 34.4233 2.21415 33.9833 2.62863L31.3033 5.13567C31.3033 5.13567 31.2433 5.18623 31.2133 5.21656C29.3433 4.3775 27.1933 3.97312 24.8733 4.09443C24.8733 4.06411 24.8633 4.03378 24.8533 4.00345L24.2533 0.910066C24.1533 0.3945 23.6933 0.12156 23.1533 0.252979L20.2733 0.950511C19.7333 1.08193 19.2733 1.57727 19.1733 2.14338L18.5833 5.51982C18.5833 5.51982 18.5733 5.59057 18.5633 5.63101C16.2533 6.63181 14.1033 8.07744 12.2233 9.82632C12.1933 9.8061 12.1633 9.79598 12.1333 9.78587L9.45334 8.57277C9.01334 8.37058 8.41334 8.57277 8.03334 9.0479L5.99333 11.6055C5.61333 12.0907 5.55334 12.7074 5.86334 13.0815L7.70334 15.3459C7.70334 15.3459 7.74334 15.3863 7.76334 15.4167C6.48334 17.6205 5.57333 20.0163 5.13333 22.4627C5.09333 22.4728 5.06334 22.4829 5.03334 22.5031L1.84334 23.878C1.31334 24.1105 0.92334 24.6665 0.92334 25.2124V28.1238C0.92334 28.6697 1.31334 29.0437 1.84334 29.0134L5.03334 28.8416C5.03334 28.8416 5.10333 28.8416 5.13333 28.8416C5.57333 31.0757 6.48334 33.0267 7.75334 34.6139C7.73334 34.6442 7.71333 34.6745 7.69333 34.715L5.85333 37.869C5.55333 38.3947 5.60334 38.981 5.98334 39.2742L8.02333 40.8411C8.41333 41.1343 9.00334 41.0433 9.45334 40.6288L12.1333 38.1217C12.1333 38.1217 12.1933 38.0712 12.2133 38.0409C14.0933 38.89 16.2333 39.2843 18.5533 39.1731C18.5533 39.2034 18.5533 39.2337 18.5733 39.2641L19.1633 42.3473C19.2633 42.8629 19.7233 43.1358 20.2633 43.0044L23.1433 42.3069C23.6833 42.1755 24.1433 41.6801 24.2433 41.114L24.8433 37.7376C24.8433 37.7376 24.8533 37.6668 24.8633 37.6365C27.1833 36.6357 29.3233 35.1901 31.2033 33.4412C31.2233 33.4513 31.2533 33.4715 31.2833 33.4817L33.9633 34.6947C34.4033 34.8969 35.0033 34.6948 35.3933 34.2095L37.4333 31.6519C37.8133 31.1768 37.8633 30.5601 37.5633 30.1861L35.7233 27.9216C35.7233 27.9216 35.6833 27.8711 35.6633 27.8509C36.9433 25.6471 37.8533 23.2512 38.2933 20.8048C38.3333 20.7947 38.3633 20.7745 38.3933 20.7644L41.5933 19.3895C42.1233 19.1671 42.5133 18.601 42.5133 18.0551V15.1437C42.5133 14.5978 42.1233 14.2238 41.5933 14.2541V14.244ZM27.1233 30.2872C26.4133 30.8432 25.6633 31.3486 24.8733 31.7631C23.8733 32.309 22.8133 32.7235 21.7133 32.9863C20.6133 33.2492 19.5633 33.3502 18.5633 33.2896C17.7733 33.2491 17.0233 33.1177 16.3133 32.8953C14.4333 32.309 12.8833 31.106 11.8533 29.4582C11.4633 28.8416 11.1533 28.1542 10.9233 27.4162C10.6333 26.476 10.4733 25.4449 10.4733 24.3329C10.4733 23.2209 10.6333 22.1089 10.9233 21.0272C11.1533 20.178 11.4633 19.339 11.8533 18.5303C12.8833 16.3871 14.4333 14.4361 16.3133 12.9399C17.0233 12.3839 17.7733 11.8785 18.5633 11.464C19.5633 10.9181 20.6233 10.5137 21.7133 10.2408C22.8133 9.97796 23.8733 9.87685 24.8733 9.9375C25.6633 9.97794 26.4133 10.1094 27.1233 10.3318C29.0033 10.9181 30.5533 12.111 31.5833 13.7689C31.9633 14.3855 32.2833 15.0729 32.5133 15.821C32.8033 16.7612 32.9633 17.7923 32.9633 18.9043C32.9633 20.0163 32.8033 21.1283 32.5133 22.1999C32.2833 23.049 31.9733 23.8881 31.5833 24.6968C30.5533 26.84 28.9933 28.791 27.1233 30.2872Z" fill="#E35743"/>
</svg>
