<svg width="70" height="81" viewBox="0 0 70 81" fill="none" xmlns="http://www.w3.org/2000/svg">
<path d="M32.0398 80.9536C31.0998 80.9536 30.3498 80.2529 30.1698 79.1963L29.2498 73.7635C25.7098 73.9128 22.3998 73.2237 19.3898 71.7535L15.0998 76.3133C14.2098 77.2552 12.9198 77.4389 12.1098 76.7383L8.76978 73.8209C7.93978 73.0973 7.79978 71.6846 8.42978 70.4441L11.3598 64.7357C9.36977 61.8184 7.98978 58.3956 7.26978 54.5594L2.30978 54.858C2.30978 54.858 2.19977 54.858 2.18977 54.858C1.07977 54.858 0.279785 53.9162 0.279785 52.6183V47.197C0.279785 45.9451 1.01977 44.7046 2.07977 44.1763L7.22978 41.6609C7.93978 37.3538 9.32977 33.104 11.3598 29.0381L8.46979 25.0066C7.81979 24.0877 7.90977 22.6291 8.68977 21.5264L12.0298 16.7713C12.7798 15.7032 14.0298 15.2552 14.9598 15.7261L19.1898 17.8969C22.2398 14.7154 25.6098 12.1885 29.1998 10.3853L30.1598 4.21743C30.3698 2.93102 31.2598 1.8284 32.3398 1.54125L37.0598 0.243365C38.1998 -0.0782356 39.2698 0.668336 39.4798 1.92028L40.3998 7.35303C43.9298 7.2152 47.2498 7.89286 50.2498 9.36303L54.5398 4.8032C55.4298 3.86137 56.7298 3.6776 57.5198 4.36674L60.8598 7.28412C61.6898 8.00772 61.8398 9.43195 61.2098 10.6609L58.2698 16.3808C60.2698 19.2867 61.6398 22.698 62.3698 26.5457L67.3298 26.2356C67.3298 26.2356 67.4298 26.2356 67.4398 26.2356C68.5598 26.2356 69.3598 27.1774 69.3598 28.4753V33.8966C69.3598 35.1485 68.6198 36.4004 67.5498 36.9173L62.3998 39.4327C61.6898 43.7513 60.2998 47.9895 58.2698 52.0555L61.1598 56.0985C61.8098 57.0173 61.7198 58.476 60.9498 59.5672L57.6098 64.3223C57.0598 65.1033 56.2698 65.5742 55.4898 65.5742C55.1998 65.5742 54.9298 65.5053 54.6798 65.3789L50.4498 63.2081C47.3998 66.3782 44.0398 68.9051 40.4298 70.7313L39.4698 76.8991C39.2698 78.174 38.3798 79.2767 37.2898 79.5753L32.5698 80.8732C32.3898 80.9191 32.1998 80.9536 32.0298 80.9536H32.0398ZM29.6698 72.5805C29.9298 72.5805 30.1398 72.7987 30.1698 73.0973C30.1698 73.1088 30.1898 73.2237 30.1898 73.2352L31.1598 78.978C31.2698 79.5983 31.7498 79.9199 32.3498 79.7476L37.0698 78.4497C37.7498 78.2659 38.3698 77.5079 38.4898 76.6924L39.4698 70.4097C39.4998 70.2144 39.6398 69.8584 39.7998 69.7895C43.4998 67.9632 46.9398 65.3789 50.0398 62.094C50.1998 61.9217 50.4498 61.8873 50.6398 62.0251L55.1098 64.3223C55.6098 64.5749 56.3798 64.2648 56.8398 63.5986L60.1798 58.8436C60.6398 58.1889 60.7298 57.3274 60.3898 56.845L57.3798 52.6298C57.2098 52.446 57.1098 52.067 57.2298 51.8258C59.3498 47.6794 60.7798 43.3378 61.4698 38.9158C61.4998 38.7091 61.6298 38.5368 61.7998 38.4679L62.1298 38.9388L61.9298 38.399L67.1698 35.8376C67.8498 35.5046 68.3598 34.6661 68.3598 33.8966V28.4753C68.3598 27.8206 67.9998 27.3956 67.4498 27.3956L62.1598 27.7172C62.0998 27.7172 62.0698 27.7172 62.0298 27.7287C61.7898 27.7632 61.5298 27.5679 61.4698 27.2578C60.7798 23.2493 59.3698 19.7232 57.2698 16.7828C57.1198 16.5761 57.1198 16.2889 57.2498 16.0707C57.2798 16.0248 57.3098 15.9788 57.3298 15.9214L60.3398 10.0522C60.6998 9.34006 60.6698 8.54755 60.2498 8.19149L56.9098 5.27412C56.4998 4.91806 55.7598 5.07886 55.2298 5.63017L50.8398 10.2934C50.8398 10.2934 50.7598 10.3738 50.7298 10.4197C50.5798 10.6035 50.3498 10.6609 50.1498 10.5575C47.0898 8.99549 43.6798 8.29486 39.9998 8.51309C39.6998 8.53606 39.4998 8.30634 39.4698 8.00772L39.4398 7.82394L38.4698 2.12702C38.3698 1.50679 37.8798 1.1852 37.2798 1.35748L32.5598 2.65537C31.8798 2.83914 31.2698 3.5972 31.1398 4.41269L30.1698 10.6839C30.1598 10.7528 30.1498 10.7873 30.1498 10.8447C30.1298 11.0514 30.0198 11.2352 29.8498 11.3271C26.1698 13.1418 22.7198 15.7261 19.6198 19.011C19.4498 19.1948 19.1998 19.2178 19.0098 19.08L14.5398 16.7828C14.0398 16.5301 13.2798 16.8402 12.8098 17.4949L9.46979 22.25C8.99979 22.9277 8.89979 23.7661 9.24979 24.26L12.2598 28.4753C12.4298 28.6591 12.5298 29.0266 12.4098 29.2678C10.2898 33.4256 8.85978 37.7787 8.16978 42.1892C8.13978 42.396 8.00978 42.5683 7.83978 42.6372C7.79978 42.6602 7.75978 42.6716 7.72978 42.6831L2.47978 45.2445C1.79978 45.5775 1.28978 46.416 1.28978 47.1855V52.6068C1.28978 53.2615 1.63977 53.6865 2.18977 53.6865L7.48978 53.3649C7.75978 53.3649 8.12978 53.5371 8.17978 53.8128C8.86978 57.8098 10.2798 61.336 12.3698 64.2993C12.5098 64.4945 12.5198 64.7587 12.4098 64.9654L12.3198 65.1377L9.30978 71.0069C8.94978 71.7191 8.97979 72.5001 9.38979 72.8676L12.7298 75.785C13.1398 76.1411 13.8898 75.9917 14.4098 75.4289L18.7998 70.7657C18.7998 70.7657 18.8698 70.6853 18.9098 70.6394C19.0598 70.4556 19.2898 70.3982 19.4898 70.5016C22.5598 72.0751 25.9698 72.7643 29.6398 72.546C29.6398 72.546 29.6598 72.546 29.6698 72.546V72.5805ZM30.5598 62.8865C30.2498 62.8865 29.9398 62.8865 29.6298 62.8636C28.3298 62.7946 27.0498 62.5305 25.8298 62.1055C22.6198 60.9684 19.9998 58.6713 18.2498 55.4668C17.5798 54.2608 17.0498 52.9284 16.6698 51.5271C16.1598 49.7009 15.9098 47.7139 15.9098 45.6235C15.9098 43.5331 16.1598 41.4312 16.6698 39.3293C17.0398 37.7443 17.5698 36.1592 18.2298 34.5857C19.9598 30.4968 22.5298 26.8213 25.6698 23.9729C26.8798 22.8817 28.1398 21.9399 29.4298 21.1589C31.1398 20.1137 32.9098 19.3327 34.7098 18.8388C36.5198 18.3449 38.3298 18.1381 40.0298 18.253C41.3298 18.3219 42.6098 18.5861 43.8298 19.011C47.0298 20.1481 49.6598 22.4453 51.4198 25.6383C52.0898 26.8673 52.6198 28.1996 52.9898 29.5894C53.4998 31.4271 53.7498 33.4141 53.7498 35.5046C53.7498 37.595 53.4998 39.6968 52.9898 41.7987C52.6098 43.4067 52.0898 45.0033 51.4398 46.5423C49.7098 50.6313 47.1298 54.2952 43.9898 57.1437C42.7798 58.2348 41.5198 59.1766 40.2298 59.9577C38.5198 61.0029 36.7398 61.7839 34.9398 62.2778C33.4598 62.6913 31.9798 62.8865 30.5498 62.8865H30.5598ZM39.1098 19.3786C37.7598 19.3786 36.3598 19.5738 34.9498 19.9644C33.2298 20.4353 31.5398 21.1818 29.9098 22.1811C28.6698 22.9277 27.4598 23.8351 26.2998 24.8803C23.2798 27.6253 20.7998 31.1515 19.1398 35.0796C18.5098 36.5727 17.9998 38.1003 17.6498 39.6164C17.1698 41.6264 16.9298 43.6365 16.9298 45.612C16.9298 47.5875 17.1698 49.4482 17.6498 51.1711C17.9998 52.4805 18.4998 53.7094 19.1198 54.835C20.7398 57.7984 23.1698 59.9232 26.1398 60.9799C27.2798 61.3819 28.4798 61.6231 29.6998 61.692C31.3298 61.7954 33.0098 61.6116 34.7198 61.1407C36.4398 60.6698 38.1398 59.9232 39.7698 58.924C40.9998 58.1774 42.2098 57.27 43.3798 56.2248C46.3998 53.4797 48.8798 49.9536 50.5498 46.0255C51.1698 44.5553 51.6698 43.0277 52.0298 41.4886C52.5098 39.4901 52.7498 37.4801 52.7498 35.5046C52.7498 33.529 52.5098 31.6683 52.0298 29.9455C51.6798 28.6476 51.1898 27.4071 50.5698 26.27C48.9398 23.3182 46.5098 21.1933 43.5398 20.1366C42.3998 19.7346 41.1998 19.4934 39.9898 19.4245C39.6998 19.4016 39.4098 19.4016 39.1198 19.4016L39.1098 19.3786Z" fill="white"/>
</svg>
