<svg width="118" height="137" viewBox="0 0 118 137" fill="none" xmlns="http://www.w3.org/2000/svg">
<path d="M54.4397 136.498C52.9997 136.498 51.8898 135.464 51.6098 133.856L49.9998 124.323C43.8598 124.61 38.1297 123.439 32.9397 120.854L25.5098 128.756C24.1298 130.215 22.1297 130.525 20.8997 129.457L15.2397 124.518C13.9797 123.416 13.7798 121.233 14.7498 119.327L19.8398 109.414C16.3598 104.384 13.9797 98.4571 12.7697 91.7724L4.05975 92.3007C2.30975 92.3926 0.989746 90.9569 0.989746 88.9124V79.7238C0.989746 77.7942 2.18975 75.8072 3.83975 74.9802L12.7097 70.6501C12.7097 70.6501 12.7297 70.6386 12.7397 70.6271C13.9397 63.2074 16.3298 55.9024 19.8598 48.9191L14.8197 41.8669C13.8297 40.4656 13.9797 38.2029 15.1897 36.4801L20.8497 28.4286C22.0197 26.7516 23.9697 26.0395 25.3997 26.7631L32.7798 30.5534C38.0198 25.0632 43.8097 20.7102 49.9897 17.632C49.9897 17.6205 49.9897 17.5975 49.9897 17.5745L51.6297 6.96173C51.9497 4.9747 53.3898 3.19441 55.0598 2.73498L63.0598 0.541208C64.8298 0.0588073 66.3997 1.14995 66.7298 3.07955L68.3497 12.6242C74.4897 12.3371 80.2197 13.5086 85.3997 16.0814C85.3997 16.0814 85.4098 16.0814 85.4198 16.0699L92.8398 8.17922C94.2197 6.72053 96.2197 6.41042 97.4397 7.4671L103.1 12.406C104.37 13.5086 104.58 15.7024 103.6 17.609L98.4998 27.5442C101.99 32.5405 104.37 38.4671 105.59 45.1518L114.47 44.612C116.15 44.612 117.38 46.0362 117.38 48.0002V57.1888C117.38 59.1299 116.18 61.1284 114.53 61.9324L105.63 66.2855C104.43 73.7168 102.03 81.0217 98.5098 88.0051L103.56 95.0688C104.55 96.47 104.4 98.7327 103.2 100.433L97.5397 108.484C96.6697 109.725 95.4298 110.46 94.2198 110.46C93.7798 110.46 93.3597 110.356 92.9798 110.173L85.6098 106.382C80.3798 111.872 74.5898 116.214 68.3898 119.315L66.7298 129.974C66.4198 131.961 64.9797 133.73 63.2997 134.201L55.2997 136.394C55.0197 136.475 54.7397 136.509 54.4597 136.509L54.4397 136.498ZM50.4198 123.128C50.6698 123.128 50.8898 123.347 50.9198 123.634C50.9298 123.726 50.9398 123.795 50.9498 123.864L52.5997 133.626C52.8197 134.89 53.8397 135.579 55.0397 135.246L63.0397 133.052C64.3498 132.696 65.4697 131.306 65.7097 129.756L67.4097 118.833C67.4297 118.626 67.5497 118.454 67.7097 118.373C74.0098 115.272 79.8797 110.85 85.1597 105.257C85.3197 105.084 85.5697 105.05 85.7598 105.188C85.8098 105.222 85.8397 105.245 85.8797 105.268L93.3698 109.116C94.3597 109.621 95.8398 109.035 96.7298 107.772L102.39 99.7205C103.29 98.4341 103.44 96.8031 102.75 95.8268L97.6497 88.6942C97.5997 88.6138 97.5597 88.5679 97.5197 88.5219C97.3397 88.3381 97.3097 88.0395 97.4297 87.7983C101.05 80.7231 103.48 73.3263 104.66 65.7916C104.69 65.5849 104.82 65.4126 104.99 65.3437L105.26 65.2174L114.11 60.8872C115.4 60.2555 116.34 58.7164 116.34 57.2233V48.0347C116.34 46.7024 115.58 45.8065 114.45 45.8065H114.33L105.47 46.3578C105.37 46.3578 105.3 46.3693 105.23 46.3808C104.96 46.4152 104.72 46.22 104.67 45.9213C103.49 39.0644 101.07 33.0229 97.4698 27.9921C97.3298 27.7854 97.3198 27.4982 97.4498 27.28C97.5098 27.1881 97.5597 27.0962 97.5997 27.0043L102.71 17.0577C103.42 15.6679 103.32 14.1173 102.47 13.3708L96.8098 8.4319C95.9798 7.7083 94.5297 7.99545 93.5098 9.06362L86.0797 16.9658C85.9997 17.0462 85.9297 17.1151 85.8698 17.1955C85.7197 17.3793 85.4897 17.4367 85.2897 17.3333C80.0498 14.6572 74.2097 13.4741 67.9397 13.8417C67.6697 13.8647 67.4397 13.6349 67.4097 13.3248L67.3698 13.0377L65.7198 3.33224C65.4998 2.05732 64.4898 1.37967 63.2798 1.71275L55.2798 3.91801C53.9798 4.27407 52.8598 5.66384 52.6098 7.21442L50.9597 17.8387C50.9397 17.9536 50.9298 18.0455 50.9198 18.1374C50.8998 18.3441 50.7798 18.5279 50.6198 18.6083C44.3398 21.6979 38.4697 26.097 33.1797 31.7135C33.0098 31.8858 32.7597 31.9202 32.5697 31.7824C32.5197 31.7479 32.4698 31.725 32.4198 31.702L24.9597 27.8773C23.9697 27.3719 22.4998 27.9577 21.6198 29.2096L15.9597 37.2611C15.0497 38.5475 14.8998 40.2014 15.5898 41.1777L20.6897 48.3104C20.6897 48.3104 20.7697 48.4137 20.8197 48.4712C20.9897 48.6549 21.0297 48.9536 20.9097 49.1948C17.2897 56.2815 14.8597 63.6898 13.6797 71.2129C13.6497 71.4197 13.5197 71.5919 13.3497 71.6609C13.2597 71.6953 13.1898 71.7298 13.1198 71.7642L4.22975 76.1058C2.93975 76.749 1.99976 78.2881 1.99976 79.7698V88.9584C1.99976 90.2907 2.74975 91.1866 3.86975 91.1866H3.99976L13.1098 90.6238C13.3698 90.5893 13.6198 90.7846 13.6698 91.0947C14.8498 97.9287 17.2597 103.97 20.8497 109.047C20.9897 109.242 20.9998 109.506 20.8898 109.713L20.8297 109.816C20.7997 109.874 20.7697 109.931 20.7397 109.989L15.6297 119.947C14.9197 121.337 15.0198 122.887 15.8598 123.622L21.5197 128.561C22.3597 129.296 23.8097 129.009 24.8297 127.929L32.2598 120.027C32.3197 119.958 32.3897 119.889 32.4597 119.798C32.6097 119.614 32.8397 119.556 33.0397 119.66C38.2897 122.347 44.1297 123.53 50.3997 123.163C50.3997 123.163 50.4198 123.163 50.4297 123.163L50.4198 123.128ZM51.9297 105.9C51.4097 105.9 50.8897 105.888 50.3797 105.854C48.2097 105.728 46.0697 105.303 44.0197 104.59C38.6597 102.684 34.2897 98.8476 31.3698 93.5067C30.2498 91.4852 29.3698 89.2685 28.7298 86.9254C27.8798 83.8587 27.4498 80.5393 27.4498 77.0477C27.4498 73.556 27.8798 70.0069 28.7198 66.4808C29.3398 63.8276 30.2198 61.1514 31.3398 58.5212C34.2398 51.6412 38.5697 45.4734 43.8497 40.6838C45.8797 38.8576 47.9997 37.2611 50.1597 35.9517C53.0197 34.1944 56.0098 32.885 59.0298 32.0581C62.0598 31.2196 65.0797 30.898 67.9397 31.0703C70.1097 31.1966 72.2497 31.6216 74.2997 32.3337C79.6497 34.2403 84.0197 38.0651 86.9597 43.3945C88.0798 45.4389 88.9598 47.6557 89.5898 49.9873C90.4398 53.054 90.8698 56.3848 90.8698 59.8765C90.8698 63.3682 90.4397 66.9173 89.5997 70.4319C88.9597 73.131 88.0897 75.8187 86.9897 78.403C84.0797 85.2715 79.7497 91.4393 74.4597 96.2288C72.4297 98.0551 70.3098 99.6516 68.1497 100.961C65.2897 102.718 62.2997 104.028 59.2697 104.866C56.7797 105.544 54.3098 105.9 51.9198 105.9H51.9297ZM66.4198 32.1844C64.0998 32.1844 61.6997 32.5175 59.2897 33.1837C56.3498 33.9877 53.4497 35.2626 50.6597 36.9739C48.5497 38.2489 46.4798 39.7994 44.4998 41.5912C39.3298 46.2774 35.1097 52.3074 32.2697 59.0266C31.1797 61.5879 30.3298 64.2066 29.7198 66.7794C28.8998 70.2137 28.4798 73.6594 28.4798 77.0362C28.4798 80.413 28.8897 83.6175 29.7097 86.5693C30.3197 88.8205 31.1697 90.9339 32.2397 92.875C35.0297 97.9862 39.2097 101.639 44.3297 103.465C46.2897 104.154 48.3497 104.556 50.4397 104.682C53.2197 104.855 56.1197 104.533 59.0497 103.729C61.9997 102.914 64.8997 101.639 67.6897 99.9272C69.7997 98.6523 71.8697 97.1018 73.8497 95.31C79.0197 90.6238 83.2498 84.5938 86.0898 77.8861C87.1598 75.3708 88.0097 72.752 88.6297 70.1218C89.4497 66.7105 89.8698 63.2533 89.8698 59.8765C89.8698 56.4997 89.4598 53.2952 88.6398 50.3319C88.0398 48.0921 87.1898 45.9673 86.1198 44.0147C83.3098 38.9265 79.1297 35.2626 74.0197 33.4478C72.0597 32.7587 69.9997 32.3452 67.9097 32.2303C67.4197 32.1959 66.9198 32.1844 66.4198 32.1844Z" fill="white"/>
</svg>
