<svg width="69" height="71" viewBox="0 0 69 71" fill="none" xmlns="http://www.w3.org/2000/svg">
<path opacity="0.5" d="M66.8234 23.4006L61.5934 23.6837C61.5334 23.6837 61.4834 23.6836 61.4234 23.7039C60.7134 20.0444 59.2134 16.8499 57.1134 14.2518C57.1534 14.2013 57.1834 14.1406 57.2134 14.0901L60.2334 8.91421C60.7334 8.05493 60.6434 7.09457 60.0134 6.60933L56.6734 4.0416C56.0534 3.56648 55.0734 3.71812 54.3434 4.39543L49.9534 8.49973C49.9034 8.55028 49.8534 8.59073 49.8134 8.64127C46.7434 7.26643 43.2234 6.60933 39.4334 6.80141C39.4334 6.74075 39.4134 6.69021 39.4034 6.64978L38.4234 1.59521C38.2634 0.756158 37.5134 0.30124 36.6234 0.513532L31.9034 1.65587C31.0234 1.86816 30.2734 2.68699 30.1034 3.60692L29.1334 9.12652C29.1234 9.18718 29.1134 9.23771 29.1034 9.29836C25.3134 10.936 21.7934 13.3016 18.7234 16.1625C18.6834 16.1321 18.6334 16.1119 18.5834 16.0917L14.1934 14.1103C13.4634 13.7868 12.4834 14.1103 11.8634 14.8887L8.52338 19.0739C7.89338 19.8624 7.81338 20.8733 8.30338 21.49L11.3134 25.2C11.3134 25.2 11.3734 25.2809 11.4134 25.3112C9.31338 28.9303 7.82339 32.8425 7.11339 36.8457C7.05339 36.8659 6.99337 36.8862 6.94337 36.9165L1.71338 39.1607C0.843379 39.5449 0.213379 40.4547 0.213379 41.3443V46.1158C0.213379 47.0155 0.843379 47.6221 1.71338 47.5715L6.94337 47.2985C6.99337 47.2985 7.05339 47.2986 7.11339 47.2885C7.82339 50.948 9.32338 54.1424 11.4134 56.7506C11.3834 56.8011 11.3534 56.8517 11.3134 56.9123L8.30338 62.0781C7.80338 62.9374 7.89338 63.8977 8.51338 64.383L11.8534 66.9507C12.4834 67.4359 13.4634 67.2843 14.1934 66.607L18.5834 62.5027C18.5834 62.5027 18.6734 62.4117 18.7234 62.3713C21.8034 63.7562 25.3134 64.4133 29.1034 64.2212C29.1034 64.2718 29.1134 64.3324 29.1334 64.3729L30.1034 69.4274C30.2734 70.2665 31.0234 70.7214 31.9034 70.5091L36.6234 69.3668C37.5134 69.1545 38.2634 68.3356 38.4234 67.4157L39.4034 61.8961C39.4034 61.8456 39.4234 61.7849 39.4334 61.7243C43.2334 60.0765 46.7434 57.7211 49.8134 54.8501C49.8534 54.8703 49.8934 54.9006 49.9434 54.9208L54.3334 56.9123C55.0634 57.2358 56.0334 56.9123 56.6734 56.1238L60.0134 51.9386C60.6334 51.1602 60.7234 50.1493 60.2234 49.5326L57.2134 45.8226C57.2134 45.8226 57.1534 45.7418 57.1134 45.7013C59.2134 42.0924 60.7034 38.17 61.4134 34.1668C61.4734 34.1466 61.5234 34.1264 61.5734 34.1062L66.8134 31.8518C67.6834 31.4778 68.3134 30.5679 68.3134 29.6682V24.8967C68.3134 24.0071 67.6834 23.4006 66.8134 23.441L66.8234 23.4006ZM43.1334 49.6742C41.9734 50.5941 40.7434 51.413 39.4534 52.1004C37.8134 52.99 36.0734 53.6673 34.2834 54.102C32.4834 54.5367 30.7534 54.6984 29.1134 54.6074C27.8234 54.5468 26.5934 54.3244 25.4334 53.9605C22.3534 53.0001 19.8134 51.0389 18.1334 48.3297C17.4934 47.3188 16.9834 46.1966 16.6134 44.9835C16.1334 43.447 15.8734 41.7587 15.8734 39.9391C15.8734 38.1195 16.1334 36.3099 16.6134 34.5307C16.9834 33.1357 17.5034 31.771 18.1334 30.4467C19.8234 26.9287 22.3634 23.7342 25.4334 21.2878C26.5934 20.3679 27.8234 19.549 29.1134 18.8616C30.7534 17.9821 32.4834 17.2947 34.2834 16.86C36.0734 16.4253 37.8134 16.2636 39.4534 16.3545C40.7434 16.4152 41.9734 16.6376 43.1334 17.0015C46.2134 17.972 48.7534 19.923 50.4434 22.6222C51.0734 23.6432 51.5934 24.7552 51.9634 25.9784C52.4434 27.5251 52.7034 29.2133 52.7034 31.033C52.7034 32.8526 52.4434 34.6621 51.9634 36.4312C51.5934 37.8263 51.0834 39.191 50.4434 40.5153C48.7534 44.0333 46.2134 47.2177 43.1334 49.6742Z" fill="white"/>
</svg>
