<svg width="69" height="80" viewBox="0 0 69 80" fill="none" xmlns="http://www.w3.org/2000/svg">
<path opacity="0.5" d="M66.61 26.337L61.38 26.6586C61.32 26.6586 61.27 26.6586 61.21 26.6816C60.5 22.5238 59 18.8943 56.9 15.9424C56.94 15.885 56.97 15.8161 57 15.7587L60.02 9.87798C60.52 8.90169 60.43 7.81055 59.8 7.25923L56.46 4.34186C55.84 3.80203 54.86 3.97432 54.13 4.74386L49.74 9.40707C49.69 9.45301 49.64 9.51044 49.6 9.56787C46.53 8.00581 43.01 7.25923 39.22 7.47746C39.22 7.40855 39.2 7.35112 39.19 7.30518L38.21 1.56231C38.05 0.608996 37.3 0.0921382 36.41 0.333339L31.69 1.63123C30.81 1.87243 30.06 2.80277 29.89 3.84797L28.92 10.1192C28.91 10.1881 28.9 10.2455 28.89 10.3144C25.1 12.1751 21.58 14.8628 18.51 18.1132C18.47 18.0788 18.42 18.0558 18.37 18.0328L13.98 15.7816C13.25 15.4141 12.27 15.7816 11.65 16.666L8.31001 21.4211C7.68001 22.317 7.6 23.4656 8.09 24.1662L11.1 28.3815C11.1 28.3815 11.16 28.4734 11.2 28.5078C9.1 32.6197 7.61 37.0647 6.9 41.6131C6.84 41.636 6.78 41.659 6.73 41.6935L1.5 44.2433C0.63 44.6797 0 45.7135 0 46.7242V52.1455C0 53.1677 0.63 53.8568 1.5 53.7994L6.73 53.4893C6.78 53.4893 6.84 53.4893 6.9 53.4778C7.61 57.6357 9.11 61.2651 11.2 64.2285C11.17 64.2859 11.14 64.3433 11.1 64.4122L8.09 70.2814C7.59 71.2577 7.68 72.3489 8.3 72.9002L11.64 75.8176C12.27 76.3689 13.25 76.1966 13.98 75.427L18.37 70.7638C18.37 70.7638 18.46 70.6605 18.51 70.6145C21.59 72.1881 25.1 72.9346 28.89 72.7164C28.89 72.7738 28.9 72.8428 28.92 72.8887L29.89 78.6316C30.06 79.5849 30.81 80.1017 31.69 79.8605L36.41 78.5626C37.3 78.3214 38.05 77.3911 38.21 76.3459L39.19 70.0747C39.19 70.0173 39.21 69.9483 39.22 69.8794C43.02 68.0073 46.53 65.3311 49.6 62.0691C49.64 62.0921 49.68 62.1266 49.73 62.1495L54.12 64.4122C54.85 64.7798 55.83 64.4122 56.46 63.5163L59.8 58.7612C60.42 57.8769 60.51 56.7283 60.01 56.0276L57 51.8124C57 51.8124 56.94 51.7205 56.9 51.6746C59 47.5742 60.49 43.1177 61.2 38.5693C61.26 38.5464 61.31 38.5234 61.36 38.5004L66.6 35.9391C67.47 35.5141 68.1 34.4804 68.1 33.4582V28.0369C68.1 27.0262 67.47 26.337 66.6 26.383L66.61 26.337ZM42.92 56.1884C41.76 57.2337 40.53 58.164 39.24 58.945C37.6 59.9558 35.86 60.7253 34.07 61.2192C32.27 61.7131 30.54 61.8969 28.9 61.7935C27.61 61.7246 26.38 61.4719 25.22 61.0584C22.14 59.9673 19.6 57.739 17.92 54.6608C17.28 53.5123 16.77 52.2374 16.4 50.8591C15.92 49.1132 15.66 47.1951 15.66 45.1277C15.66 43.0603 15.92 41.0043 16.4 38.9828C16.77 37.3978 17.29 35.8472 17.92 34.3426C19.61 30.3456 22.15 26.7161 25.22 23.9365C26.38 22.8913 27.61 21.961 28.9 21.1799C30.54 20.1807 32.27 19.3997 34.07 18.9058C35.86 18.4119 37.6 18.2281 39.24 18.3315C40.53 18.4004 41.76 18.6531 42.92 19.0666C46 20.1692 48.54 22.3859 50.23 25.4526C50.86 26.6127 51.38 27.8761 51.75 29.2659C52.23 31.0232 52.49 32.9413 52.49 35.0088C52.49 37.0762 52.23 39.1321 51.75 41.1421C51.38 42.7272 50.87 44.2777 50.23 45.7824C48.54 49.7794 46 53.3974 42.92 56.1884Z" fill="white"/>
</svg>
