<svg width="16" height="16" viewBox="0 0 16 16" fill="none" xmlns="http://www.w3.org/2000/svg">
<path opacity="0.75" d="M15.664 5.36876L14.4991 5.43152C14.4991 5.43152 14.4735 5.43152 14.4626 5.43152C14.3019 4.6157 13.9696 3.90324 13.5022 3.32367C13.5095 3.3126 13.5168 3.29783 13.5241 3.28676L14.196 2.13501C14.3056 1.94305 14.2873 1.72895 14.1485 1.6219L13.4036 1.04971C13.2649 0.94266 13.0457 0.975886 12.8851 1.12724L11.9064 2.04272C11.9064 2.04272 11.8845 2.06118 11.8736 2.07226C11.1907 1.76586 10.4056 1.6182 9.55844 1.6625C9.55844 1.65143 9.55478 1.64035 9.55112 1.62928L9.33202 0.503374C9.29551 0.315108 9.12754 0.21544 8.93035 0.263429L7.87868 0.518137C7.68149 0.566127 7.51351 0.747013 7.47699 0.953736L7.26155 2.18669C7.26155 2.18669 7.2579 2.21253 7.25425 2.2273C6.41072 2.59276 5.62561 3.12064 4.9391 3.75927C4.92814 3.75188 4.91719 3.74819 4.90623 3.7445L3.9276 3.30152C3.76692 3.22769 3.54783 3.30153 3.40907 3.47503L2.66413 4.40897C2.52537 4.58616 2.50346 4.81134 2.61666 4.94793L3.28856 5.77482C3.28856 5.77482 3.30316 5.78959 3.31047 5.80067C2.84306 6.60541 2.51076 7.48029 2.35008 8.37363C2.33548 8.37732 2.32453 8.38101 2.31358 8.3884L1.1487 8.89044C0.955163 8.97535 0.812744 9.17837 0.812744 9.37772V10.4409C0.812744 10.6402 0.951512 10.7768 1.1487 10.7657L2.31358 10.703C2.31358 10.703 2.33913 10.703 2.35008 10.703C2.51076 11.5188 2.84305 12.2312 3.30681 12.8108C3.29951 12.8219 3.29221 12.833 3.2849 12.8477L2.613 13.9995C2.50345 14.1914 2.52171 14.4055 2.66048 14.5126L3.40541 15.0848C3.54418 15.1918 3.76327 15.1586 3.9276 15.0072L4.90623 14.0918C4.90623 14.0918 4.9245 14.0733 4.93545 14.0622C5.62196 14.3686 6.40341 14.5163 7.25059 14.4757C7.25059 14.4867 7.25059 14.4978 7.25789 14.5089L7.47334 15.6348C7.50986 15.8194 7.67783 15.9227 7.87502 15.8747L8.9267 15.62C9.12389 15.572 9.29186 15.3912 9.32838 15.1844L9.54748 13.9515C9.54748 13.9515 9.55113 13.9256 9.55478 13.9146C10.402 13.5491 11.1834 13.0212 11.8699 12.3826C11.8772 12.3863 11.8882 12.3937 11.8991 12.3974L12.8778 12.8403C13.0385 12.9142 13.2575 12.8403 13.4 12.6631L14.1449 11.7292C14.2837 11.5557 14.3019 11.3305 14.1924 11.1939L13.5205 10.367C13.5205 10.367 13.5059 10.3486 13.4986 10.3412C13.966 9.53645 14.2983 8.66157 14.4589 7.76822C14.4735 7.76453 14.4845 7.75715 14.4955 7.75346L15.664 7.25142C15.8575 7.17021 15.9999 6.96348 15.9999 6.76414V5.70099C15.9999 5.50165 15.8612 5.36507 15.664 5.37614V5.36876ZM10.3801 11.2272C10.1208 11.4302 9.84692 11.6148 9.55844 11.7661C9.19327 11.9655 8.8062 12.1168 8.40451 12.2128C8.00283 12.3088 7.61941 12.3457 7.25425 12.3235C6.96577 12.3088 6.6919 12.2608 6.43263 12.1796C5.74612 11.9655 5.18011 11.5262 4.80399 10.9245C4.66157 10.6993 4.54838 10.4482 4.46439 10.1788C4.35849 9.83546 4.30006 9.45893 4.30006 9.05287C4.30006 8.6468 4.35849 8.24074 4.46439 7.84575C4.54838 7.53566 4.66157 7.22927 4.80399 6.93395C5.18011 6.15135 5.74612 5.4389 6.43263 4.89256C6.6919 4.68952 6.96577 4.50495 7.25425 4.3536C7.61941 4.15426 8.00649 4.0066 8.40451 3.90693C8.8062 3.81095 9.19327 3.77403 9.55844 3.79618C9.84692 3.81095 10.1208 3.85894 10.3801 3.94015C11.0666 4.15426 11.6326 4.58985 12.0087 5.19157C12.1511 5.42044 12.2643 5.66777 12.3483 5.94094C12.4542 6.28425 12.5126 6.66078 12.5126 7.06684C12.5126 7.47291 12.4542 7.87897 12.3483 8.27027C12.2643 8.58035 12.1511 8.88675 12.0087 9.18207C11.6326 9.96466 11.0666 10.6771 10.3801 11.2235V11.2272Z" fill="#E35743"/>
</svg>
