<svg width="28" height="28" viewBox="0 0 28 28" fill="none" xmlns="http://www.w3.org/2000/svg">
<rect width="28" height="28" rx="4" fill="#FF5A13" fillOpacity="0.1"/>
<g clipPath="url(#clip0_116_2053)">
<path d="M21.9685 9.0465C21.3697 9.30975 20.7354 9.48361 20.086 9.5625C20.7706 9.15165 21.283 8.50667 21.5285 7.747C20.8811 8.1225 20.1764 8.38921 19.4425 8.5365C18.949 8.00923 18.2953 7.65956 17.5828 7.54175C16.8703 7.42393 16.1389 7.54456 15.5019 7.88492C14.865 8.22527 14.3582 8.76632 14.0601 9.42412C13.7621 10.0819 13.6895 10.8197 13.8535 11.523C11.127 11.3955 8.71002 10.0855 7.09352 8.1065C6.79926 8.60694 6.64536 9.17746 6.64802 9.758C6.64762 10.2977 6.7805 10.8291 7.03484 11.3051C7.28919 11.7811 7.65714 12.1869 8.10602 12.4865C7.58584 12.4708 7.07698 12.3307 6.62202 12.078V12.1175C6.62186 12.875 6.88363 13.6093 7.36295 14.1959C7.84227 14.7824 8.50967 15.1852 9.25202 15.336C8.97082 15.4111 8.68109 15.4496 8.39002 15.4505C8.17952 15.4505 7.97852 15.43 7.77802 15.393C7.98929 16.0449 8.39853 16.6146 8.94878 17.023C9.49903 17.4314 10.1629 17.6581 10.848 17.6715C9.68723 18.5806 8.25492 19.0737 6.78052 19.072C6.51938 19.073 6.2584 19.0583 5.99902 19.028C7.50307 19.9917 9.25221 20.5033 11.0385 20.502C17.072 20.502 20.369 15.5045 20.369 11.1765C20.369 11.0385 20.369 10.898 20.3585 10.757C21.0035 10.2948 21.5593 9.71947 21.999 9.059L21.9685 9.0465Z" fill="url(#paint0_linear_116_2053)"/>
</g>
<defs>
<linearGradient id="paint0_linear_116_2053" x1="5.99902" y1="13.9999" x2="21.999" y2="13.9999" gradientUnits="userSpaceOnUse">
<stop stopColor="#FF512F"/>
<stop offset="1" stopColor="#F09819"/>
</linearGradient>
<clipPath id="clip0_116_2053">
<rect width="16" height="16" fill="white" transform="translate(6 6)"/>
</clipPath>
</defs>
</svg>
