<svg width="28" height="28" viewBox="0 0 28 28" fill="none" xmlns="http://www.w3.org/2000/svg">
<rect width="28" height="28" rx="4" fill="#FF5A13" fillOpacity="0.1"/>
<path d="M21.6641 10.1356C21.5712 9.8035 21.3941 9.50099 21.15 9.25738C20.9058 9.01378 20.6029 8.83733 20.2706 8.74514C19.0231 8.41164 14.0081 8.41164 14.0081 8.41164C14.0081 8.41164 9.00259 8.40364 7.74209 8.74514C7.41029 8.83774 7.10799 9.01437 6.8644 9.25795C6.62082 9.50153 6.44419 9.80384 6.35159 10.1356C6.11469 11.4127 5.99801 12.7093 6.00309 14.0081C6.00078 15.3008 6.11744 16.5909 6.35159 17.8621C6.44449 18.1941 6.62117 18.4966 6.86467 18.7407C7.10817 18.9847 7.41031 19.162 7.74209 19.2556C8.98959 19.5891 14.0081 19.5891 14.0081 19.5891C14.0081 19.5891 19.0106 19.5891 20.2706 19.2556C20.6029 19.1624 20.9056 18.9853 21.1497 18.7412C21.3937 18.4972 21.5709 18.1944 21.6641 17.8621C21.8936 16.5916 22.0056 15.2996 21.9976 14.0081C22.0056 12.7081 21.8961 11.4141 21.6641 10.1356ZM12.4061 16.4016V11.6041L16.5806 14.0081L12.4061 16.4016Z" fill="url(#paint0_linear_116_2057)"/>
<defs>
<linearGradient id="paint0_linear_116_2057" x1="6.00293" y1="14.0004" x2="21.998" y2="14.0004" gradientUnits="userSpaceOnUse">
<stop stopColor="#FF512F"/>
<stop offset="1" stopColor="#F09819"/>
</linearGradient>
</defs>
</svg>
