<svg width="60" height="60" viewBox="0 0 60 60" fill="none" xmlns="http://www.w3.org/2000/svg">
<g clip-path="url(#clip0_169_8039)">
<path d="M24.5434 40.9218C24.5434 40.9218 23.0176 41.8091 25.6293 42.1093C28.7933 42.4703 30.4104 42.4185 33.8971 41.7586C33.8971 41.7586 34.8138 42.3334 36.0941 42.8312C28.2777 46.1812 18.404 42.6372 24.5434 40.9218Z" fill="#5382A1"/>
<path d="M23.5884 36.5502C23.5884 36.5502 21.8771 37.817 24.4907 38.0873C27.8706 38.436 30.5398 38.4645 35.1585 37.5751C35.1585 37.5751 35.7973 38.2228 36.8019 38.577C27.3514 41.3404 16.8252 38.7949 23.5884 36.5502Z" fill="#5382A1"/>
<path d="M31.6405 29.1346C33.5665 31.352 31.1345 33.3474 31.1345 33.3474C31.1345 33.3474 36.0249 30.8229 33.7789 27.6615C31.6813 24.7134 30.0727 23.2486 38.781 18.1981C38.781 18.1981 25.1119 21.612 31.6405 29.1346Z" fill="#E76F00"/>
<path d="M41.9783 44.1551C41.9783 44.1551 43.1075 45.0855 40.7348 45.8052C36.223 47.172 21.9565 47.5847 17.9933 45.8597C16.5686 45.2399 19.2402 44.3798 20.0806 44.1993C20.9571 44.0093 21.458 44.0447 21.458 44.0447C19.8736 42.9286 11.2172 46.2362 17.0609 47.1835C32.9977 49.768 46.1121 46.0197 41.9783 44.1551Z" fill="#5382A1"/>
<path d="M25.2773 32.0208C25.2773 32.0208 18.0204 33.7444 22.7075 34.3703C24.6865 34.6353 28.6316 34.5753 32.3064 34.2674C35.3096 34.0141 38.3252 33.4755 38.3252 33.4755C38.3252 33.4755 37.2663 33.929 36.5001 34.4521C29.1309 36.3902 14.8948 35.4886 18.9932 33.5061C22.4592 31.8307 25.2773 32.0208 25.2773 32.0208Z" fill="#5382A1"/>
<path d="M38.2956 39.2974C45.7868 35.4046 42.3231 31.6638 39.9056 32.1678C39.313 32.2911 39.0488 32.398 39.0488 32.398C39.0488 32.398 39.2688 32.0534 39.6889 31.9042C44.4716 30.2228 48.1499 36.8634 38.145 39.4935C38.145 39.4936 38.2609 39.39 38.2956 39.2974Z" fill="#5382A1"/>
<path d="M33.7791 10.043C33.7791 10.043 37.9278 14.1931 29.8442 20.5748C23.362 25.6941 28.3661 28.6129 29.8415 31.9479C26.0577 28.5339 23.2809 25.5287 25.1438 22.7316C27.8781 18.6258 35.453 16.6352 33.7791 10.043Z" fill="#E76F00"/>
<path d="M26.0136 49.8458C33.2042 50.3061 44.2462 49.5904 44.5077 46.188C44.5077 46.188 44.005 47.4778 38.5651 48.5021C32.4277 49.6571 24.8582 49.5223 20.3687 48.782C20.3688 48.7819 21.2877 49.5427 26.0136 49.8458Z" fill="#5382A1"/>
</g>
<defs>
<clipPath id="clip0_169_8039">
<rect width="29.5954" height="40" fill="white" transform="translate(15 10)"/>
</clipPath>
</defs>
</svg>
