<svg width="60" height="60" viewBox="0 0 60 60" fill="none" xmlns="http://www.w3.org/2000/svg">
<path d="M26.361 48.8388C25.8672 48.8388 25.3768 48.7094 24.9439 48.4604L20.4331 45.7923C19.7593 45.4159 20.0881 45.2828 20.3103 45.2061C21.2086 44.8918 21.3909 44.8209 22.3498 44.2768C22.4505 44.2194 22.5825 44.2397 22.6856 44.3005L26.151 46.3549C26.2762 46.4225 26.4537 46.4225 26.5697 46.3549L40.0816 38.563C40.2067 38.492 40.2879 38.3467 40.2879 38.1981V22.621C40.2879 22.4655 40.2067 22.327 40.0789 22.2493L26.5724 14.4641C26.4473 14.3898 26.2816 14.3898 26.1564 14.4641L12.6527 22.2493C12.5218 22.3236 12.4386 22.4689 12.4386 22.6176V38.1947C12.4386 38.3434 12.5197 38.4853 12.6483 38.5562L16.3484 40.6917C18.3574 41.6953 19.5852 40.5127 19.5852 39.3233V23.9489C19.5852 23.7293 19.7576 23.5603 19.9775 23.5603H21.6889C21.902 23.5603 22.0778 23.7293 22.0778 23.9489V39.33C22.0778 42.0062 20.6167 43.5436 18.0767 43.5436C17.2954 43.5436 16.6798 43.5436 14.9617 42.6989L11.4171 40.658C10.5412 40.1511 10 39.205 10 38.1947V22.6176C10 21.6039 10.5412 20.6578 11.4171 20.1577L24.9426 12.3624C25.7982 11.8792 26.9347 11.8792 27.7836 12.3624L41.2921 20.1611C42.1647 20.6645 42.7092 21.6073 42.7092 22.621V38.1981C42.7092 39.2084 42.1647 40.1511 41.2921 40.658L27.7836 48.4533C27.3507 48.7033 26.8603 48.8317 26.3597 48.8317" fill="#689F63"/>
<path d="M30.535 38.1049C24.6229 38.1049 23.3833 35.3936 23.3833 33.1196C23.3833 32.9033 23.5578 32.731 23.7746 32.731H25.5198C25.7126 32.731 25.875 32.8712 25.9054 33.0615C26.1692 34.8381 26.9539 35.7342 30.5289 35.7342C33.3767 35.7342 34.5875 35.0916 34.5875 33.5828C34.5875 32.7145 34.2425 32.0691 29.8186 31.6366C26.1185 31.2716 23.8321 30.4573 23.8321 27.5007C23.8321 24.7772 26.132 23.1553 29.9843 23.1553C34.3102 23.1553 36.4545 24.6556 36.7251 27.8791C36.7352 27.9906 36.6946 28.0988 36.6202 28.1799C36.5458 28.2576 36.4409 28.3049 36.3327 28.3049H34.5774C34.3947 28.3049 34.2358 28.1765 34.1986 28.0008C33.7758 26.1322 32.7544 25.5341 29.9776 25.5341C26.8693 25.5341 26.5074 26.6154 26.5074 27.4264C26.5074 28.4096 26.9336 28.6968 31.1275 29.251C35.2809 29.8018 37.2527 30.5789 37.2527 33.495C37.2527 36.4347 34.7972 38.1208 30.5153 38.1208M46.9731 21.601H47.4263C47.7984 21.601 47.8694 21.3408 47.8694 21.1888C47.8694 20.79 47.5954 20.79 47.4432 20.79H46.9765L46.9731 21.601ZM46.4218 20.3237H47.4263C47.7713 20.3237 48.4478 20.3237 48.4478 21.0941C48.4478 21.6314 48.1028 21.7429 47.8965 21.8105C48.2989 21.8375 48.326 22.1011 48.3801 22.4728C48.4072 22.7059 48.4511 23.108 48.5323 23.2432H47.9134C47.8964 23.108 47.8018 22.3646 47.8018 22.3241C47.7612 22.1585 47.7037 22.0774 47.4974 22.0774H46.9866V23.2466H46.4218V20.3237ZM45.2144 21.7767C45.2144 22.9864 46.1918 23.9663 47.3925 23.9663C48.6033 23.9663 49.5808 22.9661 49.5808 21.7767C49.5808 20.5636 48.5898 19.6006 47.3891 19.6006C46.2054 19.6006 45.211 20.5501 45.211 21.7733M50.0002 21.7835C50.0002 23.2161 48.8266 24.3853 47.3959 24.3853C45.9754 24.3853 44.7916 23.2297 44.7916 21.7835C44.7916 20.3102 46.0024 19.1816 47.3959 19.1816C48.7995 19.1816 49.9968 20.3136 49.9968 21.7835" fill="#689F63"/>
</svg>
