<svg width="60" height="60" viewBox="0 0 60 60" fill="none" xmlns="http://www.w3.org/2000/svg">
<path d="M30 43.4025C44.8596 43.4025 56.9062 37.2895 56.9062 29.7488C56.9062 22.2082 44.8596 16.0951 30 16.0951C15.1403 16.0951 3.09375 22.2082 3.09375 29.7488C3.09375 37.2895 15.1403 43.4025 30 43.4025Z" fill="#777BB3"/>
<path d="M17.2123 31.4421C18.4341 31.4421 19.3463 31.2165 19.9235 30.7717C20.4944 30.3315 20.8888 29.5688 21.0955 28.5049C21.2882 27.5105 21.2148 26.8162 20.8774 26.4415C20.5323 26.0588 19.7863 25.8647 18.6602 25.8647H16.7075L15.625 31.4421H17.2123ZM10.8257 38.3125C10.7351 38.3125 10.649 38.2719 10.5914 38.2018C10.5336 38.1317 10.5102 38.0394 10.5276 37.9503L13.3964 23.17C13.4242 23.0271 13.5492 22.9238 13.6947 22.9238H19.8778C21.821 22.9238 23.2674 23.4522 24.1765 24.4944C25.0905 25.542 25.3728 27.0064 25.0154 28.8469C24.8699 29.5967 24.6198 30.2931 24.2719 30.9165C23.9236 31.5407 23.4634 32.1182 22.9036 32.6334C22.2336 33.2613 21.4753 33.7166 20.6517 33.9845C19.8412 34.2489 18.8003 34.3829 17.558 34.3829H15.0544L14.3394 38.0663C14.3116 38.2093 14.1867 38.3125 14.0412 38.3125H10.8257Z" fill="black"/>
<path d="M16.9581 26.1685H18.6603C20.0195 26.1685 20.4916 26.4672 20.652 26.6451C20.9182 26.9406 20.9684 27.5637 20.7974 28.4468C20.6052 29.4356 20.2489 30.1366 19.7383 30.5303C19.2155 30.9333 18.3656 31.1375 17.2124 31.1375H15.9937L16.9581 26.1685ZM19.8779 22.6192H13.6947C13.4038 22.6192 13.1538 22.8257 13.0983 23.1116L10.2294 37.8919C10.1948 38.0703 10.2416 38.2547 10.3569 38.395C10.4724 38.5352 10.6444 38.6163 10.8258 38.6163H14.0413C14.3322 38.6163 14.5823 38.4099 14.6377 38.124L15.3049 34.6868H17.5582C18.8324 34.6868 19.9051 34.5476 20.7461 34.2733C21.6111 33.9919 22.4069 33.5148 23.1113 32.8552C23.6938 32.3186 24.1736 31.7162 24.5372 31.0647C24.9009 30.4129 25.1621 29.6861 25.3137 28.9045C25.69 26.9672 25.3843 25.4159 24.4054 24.2939C23.436 23.1827 21.9127 22.6192 19.8779 22.6192ZM15.2565 31.7459H17.2124C18.5088 31.7459 19.4744 31.5015 20.1089 31.0124C20.7435 30.5232 21.1715 29.7067 21.3939 28.5627C21.6066 27.4642 21.5097 26.689 21.1031 26.2375C20.696 25.7859 19.8819 25.5601 18.6603 25.5601H16.4572L15.2565 31.7459M19.8779 23.2277C21.738 23.2277 23.095 23.7165 23.9479 24.6941C24.8007 25.6718 25.0575 27.0365 24.7172 28.7885C24.5772 29.5102 24.3403 30.1701 24.0068 30.7679C23.6729 31.3661 23.2369 31.9131 22.6982 32.4091C22.0561 33.0107 21.3428 33.4395 20.558 33.6948C19.7731 33.9509 18.7734 34.0783 17.5582 34.0783H14.8039L14.0413 38.0079H10.8258L13.6947 23.2277H19.8779" fill="white"/>
<path d="M32.3883 34.3828C32.2975 34.3828 32.2115 34.3422 32.1539 34.2721C32.0961 34.202 32.0727 34.1098 32.09 34.0206L33.3591 27.4809C33.4798 26.859 33.45 26.4126 33.2753 26.2239C33.1684 26.1086 32.8471 25.9153 31.8973 25.9153H29.5982L28.0026 34.1366C27.9749 34.2796 27.8498 34.3828 27.7044 34.3828H24.5143C24.4235 34.3828 24.3376 34.3422 24.2798 34.2721C24.2221 34.202 24.1987 34.1097 24.216 34.0206L27.0849 19.2403C27.1126 19.0974 27.2377 18.9942 27.3831 18.9942H30.5732C30.664 18.9942 30.75 19.0347 30.8077 19.1048C30.8654 19.175 30.8888 19.2672 30.8715 19.3564L30.1792 22.9237H32.6525C34.5367 22.9237 35.8143 23.2563 36.5585 23.9406C37.317 24.6387 37.5537 25.7549 37.262 27.2586L35.9272 34.1366C35.8995 34.2796 35.7745 34.3828 35.629 34.3828H32.3883Z" fill="black"/>
<path d="M30.5729 18.6902H27.3828C27.0918 18.6902 26.8418 18.8966 26.7863 19.1825L23.9174 33.9628C23.8828 34.1412 23.9296 34.3256 24.045 34.4659C24.1605 34.6061 24.3324 34.6873 24.5139 34.6873H27.704C27.9949 34.6873 28.245 34.4808 28.3005 34.1949L29.8483 26.2197H31.8969C32.8451 26.2197 33.0441 26.4225 33.0521 26.4312C33.1097 26.4932 33.1853 26.7802 33.0604 27.4231L31.7914 33.9628C31.7568 34.1412 31.8036 34.3256 31.919 34.4659C32.0345 34.6061 32.2064 34.6873 32.3879 34.6873H35.6286C35.9195 34.6873 36.1696 34.4808 36.2251 34.1949L37.5598 27.3169C37.873 25.7024 37.6051 24.4913 36.7637 23.7169C35.9608 22.9786 34.6159 22.6197 32.6521 22.6197H30.5473L31.1694 19.4147C31.2039 19.2363 31.1572 19.0518 31.0418 18.9116C30.9263 18.7714 30.7544 18.6902 30.5729 18.6902ZM30.5729 19.2986L29.8102 23.2282H32.6521C34.4403 23.2282 35.6737 23.5407 36.3525 24.165C37.0314 24.7896 37.2347 25.8018 36.9634 27.2009L35.6286 34.0788H32.3879L33.6569 27.5392C33.8014 26.7953 33.7483 26.2878 33.4975 26.0173C33.2467 25.7467 32.7131 25.6112 31.8969 25.6112H29.3473L27.704 34.0788H24.5139L27.3828 19.2986H30.5729Z" fill="white"/>
<path d="M42.3099 31.4421C43.5318 31.4421 44.444 31.2165 45.0211 30.7717C45.5921 30.3316 45.9864 29.5689 46.1932 28.5049C46.386 27.5105 46.3125 26.8162 45.975 26.4415C45.63 26.0588 44.884 25.8647 43.7578 25.8647H41.8052L40.7227 31.4421H42.3099ZM35.9235 38.3125C35.8328 38.3125 35.7467 38.2719 35.6891 38.2018C35.6314 38.1317 35.6079 38.0394 35.6252 37.9503L38.4941 23.17C38.5219 23.0271 38.6469 22.9238 38.7924 22.9238H44.9754C46.9188 22.9238 48.365 23.4522 49.2743 24.4944C50.1883 25.5419 50.4704 27.0063 50.1131 28.8469C49.9675 29.5967 49.7174 30.2931 49.3696 30.9165C49.0213 31.5407 48.561 32.1182 48.0013 32.6334C47.3312 33.2613 46.5729 33.7166 45.7494 33.9845C44.9389 34.2489 43.898 34.3829 42.6557 34.3829H40.1519L39.4372 38.0663C39.4094 38.2093 39.2844 38.3125 39.1389 38.3125H35.9235Z" fill="black"/>
<path d="M42.0552 26.1686H43.7574C45.1166 26.1686 45.5887 26.4673 45.7491 26.6452C46.0154 26.9408 46.0656 27.5638 45.8944 28.4469C45.7022 29.4357 45.3458 30.1367 44.8353 30.5304C44.3126 30.9334 43.4627 31.1376 42.3095 31.1376H41.0909L42.0552 26.1686ZM44.975 22.6194H38.7919C38.501 22.6194 38.251 22.8258 38.1955 23.1117L35.3266 37.892C35.292 38.0704 35.3388 38.2548 35.4541 38.3951C35.5696 38.5353 35.7415 38.6165 35.923 38.6165H39.1384C39.4293 38.6165 39.6794 38.41 39.7349 38.1241L40.402 34.6869H42.6552C43.9294 34.6869 45.0021 34.5478 45.8432 34.2735C46.7082 33.9921 47.5042 33.5148 48.2085 32.8552C48.791 32.3186 49.2707 31.7164 49.6342 31.0648C49.9979 30.4131 50.2592 29.6863 50.4108 28.9046C50.787 26.9672 50.4814 25.4159 49.5025 24.2939C48.5331 23.1828 47.0099 22.6194 44.975 22.6194ZM40.3537 31.7461H42.3095C43.6059 31.7461 44.5715 31.5016 45.206 31.0125C45.8407 30.5233 46.2685 29.7069 46.4909 28.5628C46.7038 27.4643 46.6069 26.6892 46.2002 26.2376C45.7931 25.786 44.9789 25.5602 43.7574 25.5602H41.5543L40.3537 31.7461ZM44.975 23.2278C46.8351 23.2278 48.192 23.7166 49.0449 24.6943C49.8979 25.6719 50.1546 27.0366 49.8143 28.7886C49.6743 29.5103 49.4374 30.1702 49.1039 30.768C48.77 31.3662 48.334 31.9132 47.7952 32.4092C47.1532 33.0108 46.4399 33.4396 45.655 33.6949C44.8702 33.951 43.8705 34.0785 42.6552 34.0785H39.901L39.1384 38.008H35.923L38.7919 23.2278H44.975" fill="white"/>
</svg>
