<svg width="60" height="60" viewBox="0 0 60 60" fill="none" xmlns="http://www.w3.org/2000/svg">
<path d="M50 29.8264C50 27.1749 46.6816 24.6621 41.594 23.1038C42.768 17.9149 42.2462 13.7867 39.947 12.465C39.417 12.155 38.7974 12.0082 38.1207 12.0082V13.8275C38.4957 13.8275 38.7974 13.9009 39.0501 14.0396C40.159 14.676 40.64 17.0991 40.265 20.2157C40.1753 20.9826 40.0285 21.7903 39.8492 22.6143C38.2511 22.2227 36.5063 21.9208 34.6718 21.725C33.5711 20.2157 32.4297 18.845 31.2801 17.6457C33.938 15.1737 36.4329 13.8194 38.1288 13.8194V12C35.8867 12 32.9515 13.5991 29.9837 16.373C27.0159 13.6154 24.0807 12.0326 21.8386 12.0326V13.852C23.5263 13.852 26.0294 15.1981 28.6873 17.6539C27.5459 18.8532 26.4044 20.2157 25.32 21.725C23.4774 21.9208 21.7326 22.2227 20.1345 22.6224C19.947 21.8066 19.8084 21.0152 19.7106 20.2564C19.3274 17.1399 19.8002 14.7168 20.9009 14.0723C21.1455 13.9254 21.4635 13.8601 21.8386 13.8601V12.0408C21.1537 12.0408 20.534 12.1876 19.9959 12.4977C17.7049 13.8194 17.1912 17.9394 18.3734 23.1119C13.3021 24.6784 10 27.183 10 29.8264C10 32.4779 13.3184 34.9908 18.406 36.5491C17.232 41.7379 17.7538 45.8661 20.053 47.1878C20.583 47.4978 21.2026 47.6447 21.8875 47.6447C24.1296 47.6447 27.0648 46.0456 30.0326 43.2717C33.0004 46.0293 35.9356 47.612 38.1777 47.612C38.8626 47.612 39.4823 47.4652 40.0204 47.1552C42.3115 45.8335 42.8251 41.7134 41.6429 36.5409C46.6979 34.9826 50 32.4698 50 29.8264ZM39.3844 24.3847C39.0828 25.4371 38.7077 26.5222 38.2837 27.6073C37.9494 26.9546 37.5989 26.3019 37.2157 25.6492C36.8406 24.9966 36.4411 24.3602 36.0416 23.7401C37.1994 23.9115 38.3163 24.1236 39.3844 24.3847ZM35.6502 33.0735C35.0143 34.1749 34.362 35.2192 33.6853 36.1901C32.4704 36.2961 31.2393 36.3532 30 36.3532C28.7689 36.3532 27.5377 36.2961 26.331 36.1982C25.6543 35.2274 24.9939 34.1912 24.3579 33.098C23.7383 32.0292 23.1757 30.9441 22.662 29.8509C23.1676 28.7576 23.7383 27.6644 24.3498 26.5956C24.9857 25.4942 25.638 24.4499 26.3147 23.4791C27.5296 23.373 28.7607 23.3159 30 23.3159C31.2311 23.3159 32.4623 23.373 33.669 23.4709C34.3457 24.4418 35.0061 25.4779 35.6421 26.5712C36.2617 27.6399 36.8243 28.725 37.338 29.8183C36.8243 30.9115 36.2617 32.0047 35.6502 33.0735ZM38.2837 32.0129C38.724 33.1061 39.0991 34.1994 39.4089 35.26C38.3408 35.5211 37.2157 35.7414 36.0497 35.9127C36.4492 35.2845 36.8488 34.64 37.2238 33.9791C37.5989 33.3264 37.9494 32.6656 38.2837 32.0129ZM30.0163 40.7181C29.2581 39.9348 28.4998 39.0619 27.7497 38.1073C28.4835 38.14 29.2336 38.1644 29.9918 38.1644C30.7583 38.1644 31.5165 38.1481 32.2585 38.1073C31.5247 39.0619 30.7664 39.9348 30.0163 40.7181ZM23.9503 35.9127C22.7925 35.7414 21.6755 35.5292 20.6074 35.2682C20.9091 34.2157 21.2841 33.1306 21.7081 32.0455C22.0424 32.6982 22.393 33.3509 22.7762 34.0036C23.1594 34.6563 23.5508 35.2926 23.9503 35.9127ZM29.9755 18.9348C30.7338 19.718 31.4921 20.5909 32.2422 21.5455C31.5084 21.5129 30.7583 21.4884 30 21.4884C29.2336 21.4884 28.4753 21.5047 27.7334 21.5455C28.4672 20.5909 29.2254 19.718 29.9755 18.9348ZM23.9421 23.7401C23.5426 24.3683 23.1431 25.0129 22.768 25.6737C22.393 26.3264 22.0424 26.9791 21.7081 27.6318C21.2678 26.5385 20.8928 25.4453 20.583 24.3847C21.651 24.1318 22.7762 23.9115 23.9421 23.7401ZM16.5634 33.9546C13.6771 32.7227 11.81 31.1073 11.81 29.8264C11.81 28.5455 13.6771 26.922 16.5634 25.6982C17.2646 25.3963 18.031 25.1271 18.8219 24.8742C19.2866 26.4733 19.8981 28.1376 20.6563 29.8427C19.9062 31.5397 19.3029 33.1959 18.8463 34.7868C18.0391 34.5339 17.2727 34.2565 16.5634 33.9546ZM20.9499 45.6132C19.841 44.9768 19.36 42.5537 19.735 39.4372C19.8247 38.6703 19.9715 37.8626 20.1508 37.0386C21.7489 37.4302 23.4937 37.732 25.3282 37.9278C26.4289 39.4372 27.5703 40.8078 28.7199 42.0071C26.062 44.4792 23.5671 45.8335 21.8712 45.8335C21.5043 45.8253 21.1945 45.7519 20.9499 45.6132ZM40.2894 39.3964C40.6726 42.5129 40.1998 44.936 39.0991 45.5806C38.8545 45.7274 38.5365 45.7927 38.1614 45.7927C36.4737 45.7927 33.9707 44.4465 31.3127 41.9908C32.4541 40.7915 33.5956 39.429 34.68 37.9197C36.5226 37.7239 38.2674 37.422 39.8655 37.0222C40.053 37.8463 40.1998 38.6376 40.2894 39.3964ZM43.4285 33.9546C42.7273 34.2565 41.9609 34.5257 41.17 34.7786C40.7053 33.1796 40.0938 31.5152 39.3355 29.8101C40.0856 28.1131 40.689 26.4569 41.1455 24.866C41.9527 25.1189 42.7191 25.3963 43.4366 25.6982C46.3229 26.9301 48.19 28.5455 48.19 29.8264C48.1818 31.1073 46.3147 32.7309 43.4285 33.9546Z" fill="#61DAFB"/>
<path d="M29.9917 33.5549C32.0495 33.5549 33.7177 31.8856 33.7177 29.8265C33.7177 27.7673 32.0495 26.098 29.9917 26.098C27.9338 26.098 26.2656 27.7673 26.2656 29.8265C26.2656 31.8856 27.9338 33.5549 29.9917 33.5549Z" fill="#61DAFB"/>
</svg>
