<svg width="60" height="60" viewBox="0 0 60 60" fill="none" xmlns="http://www.w3.org/2000/svg">
<path fill-rule="evenodd" clip-rule="evenodd" d="M50.7434 37.1296V39.6899H55.3688C56.3166 39.6899 57.9432 38.9968 57.9998 37.0589V36.0688C57.9998 34.4138 56.6419 33.4378 55.3688 33.4378H53.0632V32.2496H57.632V29.6752H53.2471C52.1155 29.6752 50.602 30.6088 50.602 32.3486V33.2398C50.602 34.9796 52.1013 35.8707 53.2471 35.8707C56.4297 35.8849 52.4833 35.8707 55.4254 35.8707V37.1155M25.9614 36.5072C25.9614 36.5072 28.4368 36.2951 28.4368 33.0983C28.4368 29.9015 25.4381 29.6045 25.4381 29.6045H20.0347V39.6899H22.7505V37.2569L25.0986 39.6899H29.1157L25.9614 36.5072ZM24.9147 34.4421H22.7505V32.1364H24.9288C24.9288 32.1364 25.5371 32.3628 25.5371 33.2822C25.5371 34.2016 24.9147 34.4421 24.9147 34.4421ZM35.1415 29.6752H32.3832C30.4171 29.6752 29.7523 31.4575 29.7523 32.3062V39.6899H32.5105V37.9217H35.0991V39.6899H37.7725V32.3062C37.7725 30.1561 35.8205 29.6752 35.1415 29.6752ZM35.0991 35.0645H32.4964V32.6174C32.4964 32.6174 32.4964 32.0657 33.3592 32.0657H34.307C35.0708 32.0657 35.0849 32.6174 35.0849 32.6174V35.0645H35.0991Z" fill="#CC0000"/>
<path d="M41.9032 29.6752H39.0317V39.6898H41.9032V29.6752Z" fill="#CC0000"/>
<path fill-rule="evenodd" clip-rule="evenodd" d="M45.9344 37.1013V29.6752H43.0771V37.1013V39.6898H45.9344H49.796V37.1013H45.9344Z" fill="#CC0000"/>
<path fill-rule="evenodd" clip-rule="evenodd" d="M2.99023 39.6898H14.1648C14.1648 39.6898 12.0289 29.9439 19.1014 25.9975C20.6432 25.2478 25.5515 22.4471 33.5858 28.388C33.8405 28.1758 34.0809 28.0061 34.0809 28.0061C34.0809 28.0061 26.7255 20.6648 18.5356 21.4852C14.4194 21.853 9.35548 25.6014 6.38503 30.5522C3.41458 35.5029 2.99023 39.6898 2.99023 39.6898Z" fill="#CC0000"/>
<path fill-rule="evenodd" clip-rule="evenodd" d="M2.99023 39.6898H14.1648C14.1648 39.6898 12.0289 29.9439 19.1014 25.9975C20.6432 25.2478 25.5515 22.4471 33.5858 28.388C33.8405 28.1758 34.0809 28.0061 34.0809 28.0061C34.0809 28.0061 26.7255 20.6648 18.5356 21.4852C14.4194 21.853 9.35548 25.6014 6.38503 30.5522C3.41458 35.5029 2.99023 39.6898 2.99023 39.6898Z" fill="#CC0000"/>
<path fill-rule="evenodd" clip-rule="evenodd" d="M2.99023 39.6899H14.1648C14.1648 39.6899 12.0289 29.944 19.1014 25.9975C20.6432 25.2478 25.5515 22.4471 33.5858 28.388C33.8405 28.1758 34.0809 28.0061 34.0809 28.0061C34.0809 28.0061 26.7255 20.6649 18.5356 21.4853C14.4052 21.853 9.34133 25.6015 6.37089 30.5522C3.40044 35.5029 2.99023 39.6899 2.99023 39.6899ZM26.2729 22.2774L26.3295 21.3297C26.2022 21.2589 25.8485 21.0892 24.9574 20.8346L24.9008 21.7682C25.3676 21.9238 25.8202 22.0935 26.2729 22.2774Z" fill="#CC0000"/>
<path fill-rule="evenodd" clip-rule="evenodd" d="M24.929 25.2761L24.8724 26.1672C25.3392 26.1814 25.806 26.2379 26.2728 26.337L26.3294 25.46C25.8484 25.3609 25.3817 25.3044 24.929 25.2761ZM19.6954 20.8628H19.8368L19.5539 20C19.1154 20 18.6628 20.0283 18.196 20.0849L18.4648 20.9194C18.875 20.877 19.2852 20.8628 19.6954 20.8628ZM20.3743 26.0682L20.6997 27.0442C21.1099 26.8462 21.5201 26.6764 21.9303 26.5491L21.6191 25.6156C21.1382 25.757 20.728 25.9126 20.3743 26.0682ZM13.9525 22.3481L13.316 21.3721C12.9624 21.5559 12.5946 21.754 12.2127 21.9803L12.8634 22.9704C13.2311 22.7441 13.5847 22.532 13.9525 22.3481ZM16.8522 28.7133L17.5312 29.7318C17.7717 29.3781 18.0546 29.0528 18.3657 28.7275L17.7292 27.7656C17.4039 28.0626 17.1068 28.388 16.8522 28.7133ZM14.8012 33.268L15.947 34.1733C16.0035 33.6216 16.1026 33.07 16.244 32.5183L15.2256 31.712C15.0417 32.2354 14.9144 32.7588 14.8012 33.268ZM8.60571 26.5491L7.60141 25.6721C7.23364 26.0258 6.88002 26.3794 6.55469 26.733L7.64385 27.6666C7.94089 27.2847 8.26623 26.9028 8.60571 26.5491ZM4.33392 32.8719L2.70725 32.2778C2.43849 32.8861 2.14145 33.5933 2 33.9752L3.62667 34.5693C3.81056 34.0884 4.1076 33.3953 4.33392 32.8719ZM14.589 36.8608C14.6173 37.6105 14.6881 38.2187 14.7588 38.6431L16.4562 39.2513C16.3289 38.6997 16.2016 38.0773 16.1167 37.4125L14.589 36.8608Z" fill="#CC0000"/>
</svg>
